<?xml version="1.0" encoding="UTF-8"?>
<svg xmlns="http://www.w3.org/2000/svg" style="stroke-dasharray:none; shape-rendering:auto; font-family:'Arial'; text-rendering:auto; fill-opacity:1; color-interpolation:auto; color-rendering:auto; font-size:12; fill:black; stroke:black; image-rendering:auto; stroke-miterlimit:10; stroke-linecap:square; stroke-linejoin:miter; font-style:normal; stroke-width:1; stroke-dashoffset:0; font-weight:normal; stroke-opacity:1;" contentScriptType="text/ecmascript" preserveAspectRatio="xMidYMid meet" zoomAndPan="magnify" version="1.0" contentStyleType="text/css" xml:xlink="http://www.w3.org/1999/xlink" width="930" height="610"><rect x="0" y="120" width="930" height="490" ry="0" rx="0" style="stroke:#000000; fill:#ADC9AC" /><g componentSequence="10"><text x="-365" y="7" transform="rotate(270)" text-anchor="middle" style="font-weight:bold;font-size:10px;stroke:none; fill:#434343"><tspan dy="14" x="-365">ASCOM</tspan></text></g><rect x="0" y="0" width="929" height="120" ry="0" rx="0" style="stroke:#000000; fill:#82B0B7" /><g componentSequence="9"><text x="-60" y="7" transform="rotate(270)" text-anchor="middle" style="font-weight:bold;font-size:10px;stroke:none; fill:#434343"><tspan dy="14" x="-60">Solicitante</tspan></text></g><g sequence="4"><ellipse cx="77" cy="67" rx="17" ry="17" stroke-width="1" style="fill:url(#linearGradient66FF6696FF96B6FFB6_779785665);" stroke="336633" /></g><g sequence="5"><rect x="470" y="420" width="106" height="84" ry="5" rx="5" style="fill:url(#linearGradientF8FBFEEDF5FCDEEDFAD4E7F8E2E5E9_549285502);" stroke="191970" /></g><g componentSequence="5"><text x="523" y="435" text-anchor="middle" style="font-weight:bold;font-size:10px;stroke:none; fill:#333399"><tspan dy="14" x="523">Analisar</tspan><tspan dy="14" x="523">Comunicação</tspan><tspan dy="14" x="523">Externa</tspan></text></g><rect x="120" y="24" width="191" height="63" ry="5" rx="5" style="stroke:none; fill:#FFFFE0" /><g componentSequence="7"><text x="130" y="47" text-anchor="left" style="font-weight:bold;font-size:10px;stroke:none; fill:#000000"><tspan dy="14" x="130">Processo será iniciado com o</tspan><tspan dy="14" x="130">preenchimento do formulário</tspan></text></g><path style="fill:none; stroke-width:1; stroke:#000000;" d="M140.0 24.0 L120.0 24.0 L120.0 87.0 L140.0 87.0" /><g sequence="11"><ellipse cx="887" cy="61" rx="17" ry="17" stroke-width="3" style="fill:url(#linearGradientFF6666FF9696FFB6B6_612564657);" stroke="993333" /></g><rect x="460" y="130" width="191" height="81" ry="5" rx="5" style="stroke:none; fill:#FFFFE0" /><g componentSequence="13"><text x="470" y="153" text-anchor="left" style="font-weight:bold;font-size:10px;stroke:none; fill:#000000"><tspan dy="14" x="470">Sempre será acionada. Demais</tspan><tspan dy="14" x="470">serão acionadas conforme o</tspan><tspan dy="14" x="470">preenchimento do formulário.</tspan></text></g><path style="fill:none; stroke-width:1; stroke:#000000;" d="M480.0 130.0 L460.0 130.0 L460.0 211.0 L480.0 211.0" /><g sequence="18"><rect x="470" y="333" width="106" height="84" ry="5" rx="5" style="fill:url(#linearGradientF8FBFEEDF5FCDEEDFAD4E7F8E2E5E9_1635804229);" stroke="191970" /></g><g componentSequence="18"><text x="523" y="348" text-anchor="middle" style="font-weight:bold;font-size:10px;stroke:none; fill:#333399"><tspan dy="14" x="523">Analisar</tspan><tspan dy="14" x="523">Comunicação</tspan><tspan dy="14" x="523">Interna</tspan></text></g><g sequence="22"><rect x="340" y="190" width="106" height="84" ry="5" rx="5" style="fill:url(#linearGradientF8FBFEEDF5FCDEEDFAD4E7F8E2E5E9_464400681);" stroke="191970" /></g><g componentSequence="22"><text x="393" y="205" text-anchor="middle" style="font-weight:bold;font-size:10px;stroke:none; fill:#333399"><tspan dy="14" x="393">Analise</tspan><tspan dy="14" x="393">Programação</tspan><tspan dy="14" x="393">Visual</tspan></text></g><g sequence="35"><polygon points=" 770 360 800 330 830 360 800 390 770 360" style="fill:url(#linearGradientFAFBFCFFFFCC_1345020604);" stroke="000000" /></g><path style="fill:none; stroke-width:6; stroke:#000000;" d="M790.0 360.0 L810.0 360.0" /><path style="fill:none; stroke-width:6; stroke:#000000;" d="M800.0 350.0 L800.0 370.0" /><g componentSequence="35"><text x="800" y="393" text-anchor="middle" style="font-weight:bold;font-size:10px;stroke:none; fill:#333399"><tspan dy="14" x="800">Join</tspan></text></g><g sequence="41"><polygon points=" 110 350 140 320 170 350 140 380 110 350" style="fill:url(#linearGradientFAFBFCFFFFCC_1676634494);" stroke="000000" /></g><path style="fill:none; stroke-width:6; stroke:#000000;" d="M130.0 350.0 L150.0 350.0" /><path style="fill:none; stroke-width:6; stroke:#000000;" d="M140.0 340.0 L140.0 360.0" /><g componentSequence="41"><text x="140" y="390" text-anchor="middle" style="font-weight:bold;font-size:10px;stroke:none; fill:#333399"><tspan dy="14" x="140">Evento</tspan><tspan dy="14" x="140">Paralelo</tspan></text></g><g sequence="46"><rect x="470" y="530" width="105" height="70" ry="5" rx="5" style="fill:url(#linearGradientF8FBFEEDF5FCDEEDFAD4E7F8E2E5E9_28285706);" stroke="191970" /></g><g componentSequence="46"><text x="522" y="545" text-anchor="middle" style="font-weight:bold;font-size:10px;stroke:none; fill:#333399"><tspan dy="14" x="522">Analisar</tspan><tspan dy="14" x="522">Revisão</tspan></text></g><g sequence="52"><polygon points=" 280 350 310 320 340 350 310 380 280 350" style="fill:url(#linearGradientFAFBFCFFFFCC_1810023791);" stroke="000000" /></g><ellipse cx="310" cy="350" rx="17" ry="17" stroke-width="1" style="fill:url(#linearGradientFAFBFCFFFFCC_1624732717);" stroke="000000" /><g componentSequence="52"><text x="310" y="390" text-anchor="middle" style="font-weight:bold;font-size:10px;stroke:none; fill:#333399"><tspan dy="14" x="310">Evento</tspan><tspan dy="14" x="310">Inclusivo</tspan></text></g><g componentSequence="8"><text x="117" y="64" style="font-size:10px;font-weight:none;stroke:none; fill:#333399" text-anchor="left" /></g><g componentSequence="24"><text x="463" y="210" style="font-size:10px;font-weight:none;stroke:none; fill:#333399" text-anchor="left" /></g><g componentSequence="31"><text x="86" y="238" style="font-size:10px;font-weight:none;stroke:none; fill:#333399" text-anchor="left" /></g><g componentSequence="32"><text x="202" y="230" style="font-size:10px;font-weight:none;stroke:none; fill:#333399" text-anchor="left" /></g><g componentSequence="36"><text x="681" y="230" style="font-size:10px;font-weight:none;stroke:none; fill:#333399" text-anchor="left" /></g><g componentSequence="37"><text x="683" y="374" style="font-size:10px;font-weight:none;stroke:none; fill:#333399" text-anchor="left" /></g><g componentSequence="38"><text x="721" y="461" style="font-size:10px;font-weight:none;stroke:none; fill:#333399" text-anchor="left" /></g><g componentSequence="39"><text x="896" y="253" style="font-size:10px;font-weight:none;stroke:none; fill:#333399" text-anchor="left" /></g><g componentSequence="43"><text x="235" y="371" style="font-size:10px;font-weight:none;stroke:none; fill:#333399" text-anchor="left" /></g><g componentSequence="44"><text x="415" y="372" style="font-size:10px;font-weight:none;stroke:none; fill:#333399" text-anchor="left" /></g><g componentSequence="45"><text x="377" y="460" style="font-size:10px;font-weight:none;stroke:none; fill:#333399" text-anchor="left" /></g><g componentSequence="48"><text x="771" y="564" style="font-size:10px;font-weight:none;stroke:none; fill:#333399" text-anchor="left" /></g><g componentSequence="51"><text x="327" y="564" style="font-size:10px;font-weight:none;stroke:none; fill:#333399" text-anchor="left" /></g><path style="fill:none; stroke:#000000;stroke-width:1" d="M77.0 84.0 L76.0 357.0 L108.0 364.0" /><polygon style="fill:#000000; stroke:#000000;" points=" 99 357 108 364 97 367 100 362" /><path style="fill:none; stroke:#000000;stroke-dasharray:2" d="M118.0 62.0 L94.0 65.0" /><path style="fill:none; stroke:#000000;stroke-width:1" d="M576.0 461.0 L803.0 461.0 L801.0 418.0" /><polygon style="fill:#000000; stroke:#000000;" points=" 796 428 801 418 806 428 801 426" /><path style="fill:none; stroke:#000000;stroke-width:1" d="M830.0 373.0 L885.0 372.0 L886.0 78.0" /><polygon style="fill:#000000; stroke:#000000;" points=" 881 88 886 78 891 88 886 86" /><path style="fill:none; stroke:#000000;stroke-dasharray:2" d="M458.0 206.0 L446.0 210.0" /><path style="fill:none; stroke:#000000;stroke-width:1" d="M576.0 374.0 L768.0 373.0" /><polygon style="fill:#000000; stroke:#000000;" points=" 758 368 768 373 758 378 760 373" /><path style="fill:none; stroke:#000000;stroke-width:1" d="M446.0 230.0 L796.0 230.0 L798.0 328.0" /><polygon style="fill:#000000; stroke:#000000;" points=" 803 318 798 328 793 318 798 320" /><path style="fill:none; stroke:#000000;stroke-width:1" d="M138.0 318.0 L136.0 229.0 L338.0 230.0" /><polygon style="fill:#000000; stroke:#000000;" points=" 328 225 338 230 328 235 330 230" /><path style="fill:none; stroke:#000000;stroke-width:1" d="M170.0 370.0 L278.0 370.0" /><polygon style="fill:#000000; stroke:#000000;" points=" 268 365 278 370 268 375 270 370" /><path style="fill:none; stroke:#000000;stroke-width:1" d="M340.0 370.0 L468.0 373.0" /><polygon style="fill:#000000; stroke:#000000;" points=" 458 368 468 373 458 378 460 373" /><path style="fill:none; stroke:#000000;stroke-width:1" d="M306.0 422.0 L304.0 460.0 L468.0 461.0" /><polygon style="fill:#000000; stroke:#000000;" points=" 458 456 468 461 458 466 460 461" /><path style="fill:none; stroke:#000000;stroke-width:1" d="M576.0 564.0 L800.0 564.0 L800.0 418.0" /><polygon style="fill:#000000; stroke:#000000;" points=" 795 428 800 418 805 428 800 426" /><path style="fill:none; stroke:#000000;stroke-width:1" d="M309.0 422.0 L308.0 564.0 L468.0 564.0" /><polygon style="fill:#000000; stroke:#000000;" points=" 458 559 468 564 458 569 460 564" /><defs><linearGradient xmlns:xlink="http://www.w3.org/1999/xlink" xlink:href="#linearGradient66FF6696FF96B6FFB6" id="linearGradient66FF6696FF96B6FFB6_779785665" x1="0" y1="50.0" x2="0" y2="85.0" gradientUnits="userSpaceOnUse" xlink:type="simple" xlink:actuate="onLoad" xlink:show="other" /><linearGradient id="linearGradient66FF6696FF96B6FFB6"><stop style="stop-color:#66FF66;stop-opacity:1;" offset="0.0" id="stop66FF66" /><stop style="stop-color:#96FF96;stop-opacity:1;" offset="0.5" id="stop96FF96" /><stop style="stop-color:#B6FFB6;stop-opacity:1;" offset="1.0" id="stopB6FFB6" /></linearGradient><linearGradient xmlns:xlink="http://www.w3.org/1999/xlink" xlink:href="#linearGradientF8FBFEEDF5FCDEEDFAD4E7F8E2E5E9" id="linearGradientF8FBFEEDF5FCDEEDFAD4E7F8E2E5E9_549285502" x1="0" y1="420.0" x2="0" y2="526.0" gradientUnits="userSpaceOnUse" xlink:type="simple" xlink:actuate="onLoad" xlink:show="other" /><linearGradient id="linearGradientF8FBFEEDF5FCDEEDFAD4E7F8E2E5E9"><stop style="stop-color:#F8FBFE;stop-opacity:1;" offset="0.0" id="stopF8FBFE" /><stop style="stop-color:#EDF5FC;stop-opacity:1;" offset="0.25" id="stopEDF5FC" /><stop style="stop-color:#DEEDFA;stop-opacity:1;" offset="0.5" id="stopDEEDFA" /><stop style="stop-color:#D4E7F8;stop-opacity:1;" offset="0.75" id="stopD4E7F8" /><stop style="stop-color:#E2E5E9;stop-opacity:1;" offset="1.0" id="stopE2E5E9" /></linearGradient><linearGradient xmlns:xlink="http://www.w3.org/1999/xlink" xlink:href="#linearGradientFF6666FF9696FFB6B6" id="linearGradientFF6666FF9696FFB6B6_612564657" x1="0" y1="44.0" x2="0" y2="79.0" gradientUnits="userSpaceOnUse" xlink:type="simple" xlink:actuate="onLoad" xlink:show="other" /><linearGradient id="linearGradientFF6666FF9696FFB6B6"><stop style="stop-color:#FF6666;stop-opacity:1;" offset="0.0" id="stopFF6666" /><stop style="stop-color:#FF9696;stop-opacity:1;" offset="0.5" id="stopFF9696" /><stop style="stop-color:#FFB6B6;stop-opacity:1;" offset="1.0" id="stopFFB6B6" /></linearGradient><linearGradient xmlns:xlink="http://www.w3.org/1999/xlink" xlink:href="#linearGradientF8FBFEEDF5FCDEEDFAD4E7F8E2E5E9" id="linearGradientF8FBFEEDF5FCDEEDFAD4E7F8E2E5E9_1635804229" x1="0" y1="333.0" x2="0" y2="439.0" gradientUnits="userSpaceOnUse" xlink:type="simple" xlink:actuate="onLoad" xlink:show="other" /><linearGradient xmlns:xlink="http://www.w3.org/1999/xlink" xlink:href="#linearGradientF8FBFEEDF5FCDEEDFAD4E7F8E2E5E9" id="linearGradientF8FBFEEDF5FCDEEDFAD4E7F8E2E5E9_464400681" x1="0" y1="190.0" x2="0" y2="296.0" gradientUnits="userSpaceOnUse" xlink:type="simple" xlink:actuate="onLoad" xlink:show="other" /><linearGradient xmlns:xlink="http://www.w3.org/1999/xlink" xlink:href="#linearGradientFAFBFCFFFFCC" id="linearGradientFAFBFCFFFFCC_1345020604" x1="0" y1="330.0" x2="0" y2="390.0" gradientUnits="userSpaceOnUse" xlink:type="simple" xlink:actuate="onLoad" xlink:show="other" /><linearGradient id="linearGradientFAFBFCFFFFCC"><stop style="stop-color:#FAFBFC;stop-opacity:1;" offset="0.0" id="stopFAFBFC" /><stop style="stop-color:#FFFFCC;stop-opacity:1;" offset="1.0" id="stopFFFFCC" /></linearGradient><linearGradient xmlns:xlink="http://www.w3.org/1999/xlink" xlink:href="#linearGradientFAFBFCFFFFCC" id="linearGradientFAFBFCFFFFCC_1676634494" x1="0" y1="320.0" x2="0" y2="380.0" gradientUnits="userSpaceOnUse" xlink:type="simple" xlink:actuate="onLoad" xlink:show="other" /><linearGradient xmlns:xlink="http://www.w3.org/1999/xlink" xlink:href="#linearGradientF8FBFEEDF5FCDEEDFAD4E7F8E2E5E9" id="linearGradientF8FBFEEDF5FCDEEDFAD4E7F8E2E5E9_28285706" x1="0" y1="530.0" x2="0" y2="635.0" gradientUnits="userSpaceOnUse" xlink:type="simple" xlink:actuate="onLoad" xlink:show="other" /><linearGradient xmlns:xlink="http://www.w3.org/1999/xlink" xlink:href="#linearGradientFAFBFCFFFFCC" id="linearGradientFAFBFCFFFFCC_1810023791" x1="0" y1="320.0" x2="0" y2="380.0" gradientUnits="userSpaceOnUse" xlink:type="simple" xlink:actuate="onLoad" xlink:show="other" /><linearGradient xmlns:xlink="http://www.w3.org/1999/xlink" xlink:href="#linearGradientFAFBFCFFFFCC" id="linearGradientFAFBFCFFFFCC_1624732717" x1="0" y1="333.0" x2="0" y2="368.0" gradientUnits="userSpaceOnUse" xlink:type="simple" xlink:actuate="onLoad" xlink:show="other" /></defs></svg>
